<svg width="43" height="43" viewBox="0 0 43 43" xmlns="http://www.w3.org/2000/svg"><title>Page 1</title><path d="M21.5 0C15.565 0 10.498 2.1 6.299 6.299 2.099 10.499 0 15.565 0 21.5c0 5.935 2.1 11.002 6.299 15.201C10.499 40.901 15.565 43 21.5 43c5.935 0 11.002-2.1 15.201-6.299C40.901 32.501 43 27.435 43 21.5c0-5.935-2.1-11.002-6.299-15.201C32.501 2.099 27.435 0 21.5 0zm0 3.191c4.647 0 8.706 1.54 12.178 4.62-.28.391-.672.853-1.176 1.385-.504.532-1.554 1.358-3.15 2.478-1.595 1.12-3.373 2.043-5.332 2.771-2.072-3.863-4.34-7.446-6.803-10.75a18.29 18.29 0 0 1 4.283-.504zm-7.81 1.68a98.67 98.67 0 0 1 6.802 10.666c-5.879 1.568-11.534 2.324-16.965 2.268A18.533 18.533 0 0 1 7.14 10.12a18.332 18.332 0 0 1 6.55-5.249zM3.106 21.5v-.504c6.271.112 12.57-.756 18.897-2.603a31.82 31.82 0 0 1 1.512 3.107c-.28.056-.532.112-.756.168a25.778 25.778 0 0 0-6.173 3.023c-1.932 1.288-3.527 2.632-4.787 4.032-1.26 1.4-2.156 2.463-2.688 3.191-.532.728-.938 1.372-1.217 1.932-3.192-3.528-4.788-7.643-4.788-12.346zM21.5 39.893c-4.2 0-7.95-1.288-11.254-3.864.168-.336.378-.714.63-1.133.252-.42.784-1.134 1.596-2.142a23.173 23.173 0 0 1 2.687-2.814c.98-.867 2.324-1.82 4.031-2.855a29.072 29.072 0 0 1 5.417-2.562h.168c1.848 4.816 3.136 9.463 3.864 13.942-2.24.952-4.62 1.428-7.139 1.428zm10.246-3.108c-.672-4.087-1.848-8.454-3.527-13.101 3.919-.672 7.726-.42 11.422.755-.84 5.208-3.472 9.323-7.895 12.346zm-4.703-16.04a16.812 16.812 0 0 0-.336-.925 57.93 57.93 0 0 0-1.26-2.687 30.493 30.493 0 0 0 5.585-3.024c1.708-1.175 2.828-2.057 3.36-2.645.532-.588.965-1.106 1.301-1.554 2.744 3.36 4.144 7.167 4.2 11.422-4.368-.896-8.65-1.092-12.85-.588z" fill="#FFF" fill-rule="evenodd"/></svg>