<svg width="55" height="36" viewBox="0 0 55 36" xmlns="http://www.w3.org/2000/svg"><title>Page 1</title><path d="M21.994 16.083l2.583-.985c1.722-.657 2.583-2.548 2.583-5.672 0-3.16-.923-5.52-2.77-7.083C22.545.781 20.273 0 17.575 0H0v35.254h17.574l1.677-.106c1.119-.071 2.353-.426 3.702-1.065 1.349-.64 2.582-1.66 3.7-3.062 1.12-1.403 1.678-3.453 1.678-6.151l-.026-1.385c-.018-.923-.213-1.926-.586-3.009s-.994-2.085-1.864-3.009c-.87-.923-2.157-1.384-3.86-1.384zM7.775 6.284h9.799s.4.15 1.198.453c.799.301 1.198 1.375 1.198 3.222 0 1.81-.301 2.964-.905 3.461a3.174 3.174 0 0 1-2.077.746H7.775V6.284zm9.32 22.686h-9.32v-9.372h9.799l1.784.585c1.19.391 1.784 1.793 1.784 4.208 0 2.094-.497 3.381-1.491 3.86-.994.48-1.846.72-2.556.72zM42.657 9c-3.231 0-5.734.701-7.51 2.104-1.774 1.402-3.061 2.946-3.86 4.633-.799 1.686-1.27 3.24-1.411 4.66l-.213 2.13.08 2.103c.053 1.403.461 2.947 1.224 4.633.764 1.687 2.033 3.231 3.808 4.633C36.55 35.3 39.177 36 42.657 36l1.81-.053c1.208-.036 2.539-.32 3.995-.852 1.455-.533 2.778-1.447 3.967-2.743 1.19-1.296 1.784-3.204 1.784-5.725h-5.911l-.613 1.89c-.408 1.261-2.014 1.891-4.82 1.891l-2.981-.612c-1.989-.408-2.983-2.246-2.983-5.512h17.521l.08-2.396c.053-1.598-.222-3.355-.826-5.273-.603-1.917-1.73-3.665-3.381-5.245C48.648 9.79 46.1 9 42.657 9zm5.325 10.598h-11.13l1.012-2.716c.674-1.811 2.325-2.716 4.953-2.716 2.591 0 4.1.905 4.526 2.716l.64 2.716zm1.385-17.521H35.414v4.367h13.953V2.077z" fill="#FFF" fill-rule="evenodd"/></svg>