<svg width="116" height="116" viewBox="0 0 116 116" xmlns="http://www.w3.org/2000/svg"><title>teamwork</title><g fill="none" fill-rule="evenodd"><ellipse fill="#4990E2" cx="95.286" cy="53.252" rx="8.286" ry="8.286"/><path fill="#7ED321" d="M58 56.047l2.556-4.261h-5.112zM66.286 38.752c0-1.27-.311-2.46-.825-3.538-.008-.014-.022-.027-.029-.041a8.411 8.411 0 0 0-1.056-1.647l-.052-.062a8.164 8.164 0 0 0-1.41-1.342l-.013-.015c-1.375-1.017-3.062-1.64-4.901-1.64-1.842 0-3.528.623-4.903 1.642-.006.004-.008.013-.017.019-.52.387-.992.84-1.408 1.34-.01.012-.02.027-.033.04a8.505 8.505 0 0 0-1.059 1.636c-.006.012-.018.023-.025.035-.522 1.085-.84 2.287-.84 3.573 0 4.57 3.715 8.286 8.285 8.286s8.286-3.716 8.286-8.286z"/><path d="M50.67 17.638c4.036-4.037 10.607-4.037 14.644 0 3.36 3.36 3.926 8.512 1.616 12.489a12.46 12.46 0 0 1 2.121 2.964l.553.555c4.25-5.675 3.797-13.781-1.359-18.939a14.403 14.403 0 0 0-10.251-4.24c-3.88 0-7.522 1.506-10.254 4.24-5.156 5.156-5.61 13.261-1.359 18.937l.58-.58a12.41 12.41 0 0 1 2.099-2.925c-2.318-3.981-1.755-9.137 1.61-12.5z" fill="#66CEDB"/><ellipse fill="#4990E2" cx="20.714" cy="53.252" rx="8.286" ry="8.286"/><path d="M8.286 72.5h4.143v39.357h6.214V89.071h4.143v22.786H29V72.5h4.143v12.429h4.143V71.895c0-3.428-2.788-5.61-6.215-5.61H10.357c-3.426 0-6.214 2.182-6.214 5.61V84.93h4.143V72.5z" fill="#4990E2"/><path d="M45.571 58h4.143v39.357h6.215V74.571h4.142v22.786h6.215V58h4.143v12.429h4.142V57.395c0-3.428-2.788-5.61-6.214-5.61h-2.97l-5.612 9.049c-.375.623-1.048.853-1.775.853-.73 0-1.402-.155-1.775-.779l-5.612-9.122h-2.97c-3.426 0-6.214 2.18-6.214 5.61v13.033h4.142V58z" fill="#7ED321"/><path d="M82.857 72.5H87v39.357h6.214V89.071h4.143v22.786h6.214V72.5h4.143v12.429h4.143V71.895c0-3.428-2.788-5.61-6.214-5.61H84.929c-3.427 0-6.215 2.182-6.215 5.61V84.93h4.143V72.5z" fill="#4990E2"/><g fill="#000"><path d="M105.643 62.143h-1.12c1.977-4.143 3.191-5.404 3.191-8.588 0-6.855-5.574-12.58-12.428-12.58-6.855 0-12.429 5.802-12.429 12.656 0 3.186 1.214 4.371 3.19 8.514H84.93c-2.341 0-4.479.203-6.215 1.518v-6.268c0-5.71-4.646-9.752-10.357-9.752h-1.12c1.978-4.143 3.192-5.404 3.192-8.588 0-.048-.007-.243-.007-.29.274-.102.535-.325.754-.545 7.269-7.269 7.269-19.134 0-26.402a18.589 18.589 0 0 0-11.102-5.363v-.848C60.07 2.181 57.284 0 53.857 0H0v4.143h53.857c1.144 0 2.072.323 2.072 1.464v.843a18.543 18.543 0 0 0-11.118 5.328c-7.268 7.269-7.268 19.097 0 26.363.224.224.49.371.769.473l-.006.439c-.003 3.186 1.211 4.447 3.187 8.59h-1.118c-5.711 0-10.357 4.041-10.357 9.752v6.268c-1.736-1.317-3.874-1.52-6.215-1.52h-1.12c1.978-4.143 3.192-5.404 3.192-8.588 0-6.855-5.574-12.58-12.429-12.58-6.854 0-12.428 5.802-12.428 12.656 0 3.184 1.214 4.369 3.19 8.512h-1.119C4.647 62.143 0 66.184 0 71.895v14.5c0 1.144.926 2.676 2.071 2.676h6.215v24.253c0 1.143.926 2.676 2.071 2.676h20.714c1.146 0 2.072-1.533 2.072-2.676V89.07h6.214c1.146 0 2.072-1.532 2.072-2.676V74.571h4.142v24.253c0 1.143.926 2.676 2.072 2.676h20.714c1.146 0 2.072-1.533 2.072-2.676V74.57h4.142v11.824c0 1.144.926 2.676 2.072 2.676h6.214v24.253c0 1.143.926 2.676 2.072 2.676h20.714c1.145 0 2.071-1.533 2.071-2.676V89.07h6.215c1.145 0 2.071-1.532 2.071-2.676v-14.5c0-5.71-4.646-9.752-10.357-9.752zM87 53.253c0-4.57 3.716-8.286 8.286-8.286 4.57 0 8.285 3.716 8.285 8.285 0 4.57-3.716 8.286-8.285 8.286-4.57 0-8.286-3.716-8.286-8.286zm-26.444-1.467L58 56.046l-2.556-4.26h5.112zM58 26.324c-1.995 0-3.876.484-5.55 1.323-1.13-2.324-.753-5.176 1.148-7.078a6.219 6.219 0 0 1 8.787 0c1.9 1.9 2.277 4.75 1.15 7.072A12.308 12.308 0 0 0 58 26.324zm-11.619 7.322c-4.25-5.673-3.797-13.779 1.36-18.937a14.404 14.404 0 0 1 10.253-4.24c3.877 0 7.52 1.506 10.251 4.24 5.156 5.156 5.61 13.262 1.36 18.94l-.554-.556a12.46 12.46 0 0 0-2.121-2.964c2.31-3.977 1.744-9.129-1.616-12.489-4.037-4.037-10.608-4.037-14.645 0-3.364 3.364-3.927 8.52-1.61 12.501a12.555 12.555 0 0 0-2.098 2.925l-.58.58zm3.333 5.106c0-1.284.32-2.488.843-3.575.007-.012.019-.02.025-.035a8.252 8.252 0 0 1 1.059-1.637c.01-.012.02-.027.033-.039.416-.5.889-.953 1.408-1.34.007-.004.009-.013.017-.019 1.378-1.019 3.064-1.642 4.903-1.642 1.84 0 3.526.623 4.901 1.64l.013.015c.522.387.994.84 1.41 1.342.017.02.033.041.052.062.412.505.77 1.056 1.056 1.647.009.014.023.027.03.041.511 1.077.822 2.268.822 3.54 0 4.57-3.716 8.286-8.286 8.286-4.57 0-8.286-3.716-8.286-8.286zm-37.285 14.5c0-4.57 3.716-8.285 8.285-8.285 4.57 0 8.286 3.716 8.286 8.285 0 4.57-3.716 8.286-8.286 8.286-4.57 0-8.285-3.716-8.285-8.286zM37.286 84.93h-4.143V72.5H29v39.357h-6.214V89.071h-4.143v22.786h-6.214V72.5H8.286v12.429H4.143V71.895c0-3.428 2.788-5.61 6.214-5.61h20.714c3.427 0 6.215 2.182 6.215 5.61V84.93zm29-26.929v39.357H60.07V74.571H55.93v22.786h-6.215V58h-4.143v12.429H41.43V57.395c0-3.428 2.788-5.61 6.214-5.61h2.97l5.612 9.049c.375.623 1.048.853 1.775.853.73 0 1.402-.155 1.775-.779l5.612-9.122h2.97c3.426 0 6.214 2.18 6.214 5.61v13.033H70.43V58h-4.143zm45.571 26.929h-4.143V72.5h-4.143v39.357h-6.214V89.071h-4.143v22.786H87V72.5h-4.143v12.429h-4.143V71.895c0-3.428 2.788-5.61 6.215-5.61h20.714c3.426 0 6.214 2.182 6.214 5.61V84.93z"/><path d="M35.214 7.679h4.143v4.143h-4.143zM26.929 7.679h4.143v4.143h-4.143zM18.643 7.679h4.143v4.143h-4.143z"/></g></g></svg>