<svg width="123" height="111" viewBox="0 0 123 111" xmlns="http://www.w3.org/2000/svg"><title>workplace</title><g fill="none" fill-rule="evenodd"><path fill="#D2038C" d="M105.429 65.011h6.589v41.609h-6.589zM10.982 65.011h6.589v41.609h-6.589zM105.743 56.251H4.393v4.38h114.214v-4.38h-.314z"/><path d="M15.375 47.492c-2.864 0-5.307 0-6.214 4.38H21.59c-.907-4.38-3.35-4.38-6.214-4.38z" fill="#4990E2"/><path d="M76.875 43.112h13.179c1.212 0 2.196-1.623 2.196-2.83v-1.55H48.321v1.55c0 1.207.984 2.83 2.197 2.83h26.357zM32.946 49.681h6.589v2.19h-6.589zM65.893 47.492h8.786v4.38h-8.786z" fill="#FFF"/><path d="M92.25 18.383c0-1.21-.984-1.55-2.196-1.55H50.518c-1.213 0-2.197.34-2.197 1.55v15.969H92.25v-15.97zM60.856 30.879l-3.105-3.097 8.785-8.76 3.106 3.097-8.786 8.76zm13.179 0l-3.106-3.097 8.786-8.76 3.106 3.097-8.786 8.76z" fill="#4990E2"/><ellipse fill="#4990E2" cx="6.589" cy="22.763" rx="2.196" ry="2.19"/><path d="M112.018 27.143a2.195 2.195 0 0 0 2.196-2.19v-2.19h-4.393v2.19c0 1.206.984 2.19 2.197 2.19zM26.357 12.452c-2.864 0-5.306 0-6.214 4.38h12.428c-.907-4.38-3.35-4.38-6.214-4.38zM116.477 51.871l1.673-8.76h-12.265l1.674 8.76zM28.554 7.654v-.221c0-1.207-.984-2.19-2.197-2.19a2.195 2.195 0 0 0-2.196 2.19v.221a11.003 11.003 0 0 1 4.393 0z" fill="#4990E2"/><path d="M72.482 75.96c0-1.206-.984-2.19-2.196-2.19H52.714a2.195 2.195 0 0 0-2.196 2.19c0 1.207.984 2.19 2.196 2.19h17.572a2.195 2.195 0 0 0 2.196-2.19z" fill="#D2038C"/><g fill="#000"><path d="M120.942 51.258l2.018-10.568c.123-.642-.048-.984-.465-1.485-.418-.502-1.037-.473-1.691-.473h-6.59v-7.615c2.55-.906 4.393-3.315 4.393-6.167v-4.38c0-1.208-.982-1.548-2.196-1.548h-8.786c-1.215 0-2.196.34-2.196 1.55v4.38c0 2.852 1.84 5.26 4.392 6.167v7.613h-6.589c-.654 0-1.274-.029-1.693.473-.415.503-.589 1.325-.466 1.966l2.014 10.7H79.071v-4.38h10.983c3.632 0 6.589-3.587 6.589-7.209v-21.9c0-3.624-2.957-5.93-6.59-5.93H50.519c-3.633 0-6.59 2.306-6.59 5.93v21.9c0 3.622 2.957 7.21 6.59 7.21H61.5v4.38H43.929v-2.83c0-2.418-1.973-3.74-4.393-3.74h-6.59c-2.422 0-4.392 1.322-4.392 3.74v2.83h-2.419c-.927-6.57-4.68-8.325-9.33-8.936L9.728 28.662a6.674 6.674 0 0 0 3.45-5.82 6.606 6.606 0 0 0-1.704-4.407l4.105-2.067a14.708 14.708 0 0 0-.204 2.343c0 1.211.982 2.501 2.196 2.501h17.572a2.193 2.193 0 0 0 2.196-2.19c0-3.594-1.77-8.76-4.46-8.76h.067V7.433c0-3.622-2.956-6.57-6.589-6.57-3.633 0-6.59 2.948-6.59 6.57v1.932L5.94 16.258C2.614 16.59 0 19.362 0 22.763c0 3.127 2.207 5.742 5.146 6.399l6.952 14.182C8.33 44.53 5.414 47.492 4.615 51.87H2.196c-1.214 0-2.196.34-2.196 1.55v8.76c0 1.21.982 2.83 2.196 2.83H6.59v43.16c0 1.208.982 2.829 2.197 2.829h10.982c1.214 0 2.196-1.62 2.196-2.83V65.012h79.072v43.16c0 1.208.982 2.829 2.196 2.829h10.982c1.215 0 2.197-1.62 2.197-2.83V65.012h4.393c1.214 0 2.196-1.62 2.196-2.83v-8.76c0-1.16-.912-2.086-2.058-2.163zm-11.12-28.495h4.392v2.19c0 1.206-.984 2.19-2.196 2.19a2.195 2.195 0 0 1-2.197-2.19v-2.19zm-3.937 20.349h12.265l-1.673 8.76h-8.918l-1.674-8.76zm-55.367-26.28h39.536c1.212 0 2.196.342 2.196 1.55v15.97H48.321v-15.97c0-1.208.984-1.55 2.197-1.55zm-2.197 23.45v-1.55H92.25v1.55c0 1.207-.984 2.83-2.196 2.83H50.518c-1.213 0-2.197-1.623-2.197-2.83zm17.572 7.21h8.786v4.38h-8.786v-4.38zm-32.947 2.19h6.59v2.19h-6.59v-2.19zm-12.803-32.85c.908-4.38 3.35-4.38 6.214-4.38 2.864 0 5.307 0 6.214 4.38H20.143zm6.214-11.589c1.213 0 2.197.983 2.197 2.19v.221a11.003 11.003 0 0 0-4.393 0v-.221c0-1.209.984-2.19 2.196-2.19zM6.59 20.573c1.213 0 2.197.983 2.197 2.19 0 1.206-.984 2.19-2.197 2.19a2.195 2.195 0 0 1-2.196-2.19c0-1.207.984-2.19 2.196-2.19zm8.786 26.919c2.864 0 5.307 0 6.214 4.38H9.16c.907-4.38 3.35-4.38 6.214-4.38zm2.196 59.128h-6.589V65.011h6.59v41.61zm94.447 0h-6.59V65.011h6.59v41.61zm6.59-45.989H4.392v-4.38H118.607v4.38z"/><path d="M76.875 75.96c0-3.621-2.956-6.569-6.59-6.569h-17.57c-3.634 0-6.59 2.948-6.59 6.57 0 3.622 2.956 6.57 6.59 6.57h1.418l-7.911 25.315c-.064.209-.097.106-.097.325V111h4.393v-2.5l8.212-25.97h.574V111h4.392V82.53h.574l8.212 25.97v2.5h4.393v-2.83c0-.218-.033-.113-.097-.324l-7.911-25.315h1.419c3.633 0 6.589-2.948 6.589-6.57zm-26.357 0c0-1.206.984-2.19 2.196-2.19h17.572c1.212 0 2.196.984 2.196 2.19 0 1.207-.984 2.19-2.196 2.19H52.714a2.195 2.195 0 0 1-2.196-2.19zM69.64 22.116l-8.785 8.786-3.097-3.097 8.786-8.786zM82.818 22.118l-8.786 8.786-3.097-3.097 8.786-8.786z"/></g></g></svg>