<svg version="1" xmlns="http://www.w3.org/2000/svg" width="533.333" height="533.333" viewBox="0 0 400.000000 400.000000"><path d="M243.5 72.7c-7.4.8-21.7 4.3-31 7.8-40.1 15.1-70.2 48.4-80.9 89.9-2.5 9.6-3.4 15.7-4.1 29.8-.5 9.6-1.5 12.7-5.1 17.6-3.4 4.3-8.8 7.7-16.6 10.1-5.8 1.8-8.3 2.3-17.8 3.6-4.1.6-28.9.6-37.5 0-15.4-1-34.2-1.2-36.3-.4-2.9 1.1-2.8 3 .5 6 3.2 2.9 13 9.9 13.9 9.9.3 0 1.8.8 3.2 1.9 2.5 1.7 9.9 5.9 27.2 15.3 14.4 7.8 51.2 26.4 61.5 31.1 18.6 8.3 47.8 19.3 56.5 21.2.8.2 4.9 1.2 9 2.4 7.2 1.9 23.8 5.4 31 6.5 17.8 2.8 47.2 2.6 63.3-.3 40.7-7.4 71.9-28.3 91.8-61.6 4.6-7.7 11.2-22.1 12.5-27.4.2-.9.8-3.4 1.4-5.6 3.3-12.3 4.6-36 2.5-46.5-.2-1.4-1-5-1.5-8-2.8-13.9-11.7-35.1-19.2-45.5-1.8-2.6-4.1-5.9-5-7.4-2.7-4-17.5-18.8-23.8-23.6-15.2-11.7-34.8-20.9-52-24.4-3-.6-6.6-1.4-8-1.7-3.1-.7-30-1.2-35.5-.7z"/></svg>