<?xml version="1.0" encoding="UTF-8" standalone="no"?>
<svg width="55px" height="36px" viewBox="0 0 55 36" version="1.1" xmlns="http://www.w3.org/2000/svg" xmlns:xlink="http://www.w3.org/1999/xlink">
    <!-- Generator: Sketch 3.8.3 (29802) - http://www.bohemiancoding.com/sketch -->
    <title>Page 1</title>
    <desc>Created with Sketch.</desc>
    <defs></defs>
    <g id="Page-1" stroke="none" stroke-width="1" fill="none" fill-rule="evenodd">
        <g id="Home" transform="translate(-629.000000, -3909.000000)" fill="#FFFFFF">
            <g id="Group-6" transform="translate(383.000000, 3822.000000)">
                <path d="M267.994079,103.08284 C267.994079,103.08284 268.855019,102.754438 270.576925,102.097635 C272.298824,101.440824 273.159763,99.5503106 273.159763,96.4260321 C273.159763,93.2662597 272.236698,90.9053345 270.390533,89.3431953 C268.544367,87.781056 266.272201,87 263.573964,87 L246,87 L246,122.254438 L263.573964,122.254438 C263.573964,122.254438 264.133128,122.218935 265.251481,122.147929 C266.369828,122.076923 267.603545,121.721897 268.952666,121.08284 C270.301781,120.443784 271.535498,119.423084 272.653844,118.02071 C273.772198,116.618336 274.331361,114.568062 274.331361,111.869826 C274.331361,111.869826 274.322486,111.40829 274.304735,110.485204 C274.286985,109.562124 274.091718,108.559176 273.718933,107.47633 C273.346149,106.393484 272.724859,105.390535 271.855031,104.467456 C270.985203,103.544376 269.698235,103.08284 267.994079,103.08284 L267.994079,103.08284 Z M253.775148,93.2840237 L263.573964,93.2840237 C263.573964,93.2840237 263.973368,93.4349084 264.772188,93.7366847 C265.571008,94.038461 265.970418,95.1124181 265.970418,96.9585833 C265.970418,98.769241 265.668641,99.9230747 265.065089,100.420118 C264.461536,100.917162 263.769232,101.16568 262.988169,101.16568 L253.775148,101.16568 L253.775148,93.2840237 Z M263.094671,115.970414 L253.775148,115.970414 L253.775148,106.597633 L263.573964,106.597633 C263.573964,106.597633 264.168635,106.792901 265.35799,107.183435 C266.547345,107.573963 267.142008,108.976322 267.142008,111.390533 C267.142008,113.485216 266.644978,114.772184 265.650884,115.251478 C264.656797,115.730771 263.804739,115.970414 263.094671,115.970414 L263.094671,115.970414 Z M288.656801,95.9999966 C285.426021,95.9999966 282.923086,96.701176 281.147929,98.1035486 C279.372772,99.5059211 278.085804,101.05029 277.286984,102.736688 C276.488164,104.423087 276.017753,105.976323 275.875736,107.396453 C275.733727,108.816576 275.662718,109.526631 275.662718,109.526631 C275.662718,109.526631 275.689351,110.227803 275.742602,111.630176 C275.79586,113.032548 276.204138,114.576917 276.967457,116.263314 C277.73077,117.949712 278.999994,119.494076 280.775145,120.896449 C282.550302,122.298823 285.177495,123 288.656801,123 C288.656801,123 289.260347,122.982249 290.467459,122.946746 C291.674564,122.911242 293.005908,122.627222 294.461538,122.094675 C295.917169,121.562127 297.239638,120.647936 298.428992,119.352071 C299.618347,118.056206 300.213018,116.147945 300.213018,113.627219 L294.301779,113.627219 C294.301779,113.627219 294.097636,114.25739 293.689351,115.517753 C293.281066,116.778113 291.674571,117.408284 288.869819,117.408284 C288.869819,117.408284 287.875752,117.204144 285.887571,116.795858 C283.899396,116.387572 282.905322,114.550312 282.905322,111.284024 L300.426036,111.284024 C300.426036,111.284024 300.452661,110.485217 300.505919,108.887577 C300.55917,107.289931 300.284026,105.532551 299.680473,103.615385 C299.076921,101.698218 297.949713,99.9497138 296.298815,98.3698242 C294.647924,96.7899346 292.100606,95.9999966 288.656801,95.9999966 L288.656801,95.9999966 Z M293.982245,106.597633 L282.852071,106.597633 C282.852071,106.597633 283.189348,105.692318 283.863909,103.881653 C284.538463,102.070996 286.189333,101.16568 288.816568,101.16568 C291.408295,101.16568 292.917156,102.070996 293.343192,103.881653 C293.769234,105.692318 293.982245,106.597633 293.982245,106.597633 L293.982245,106.597633 Z M295.366867,89.0769265 L281.414198,89.0769265 L281.414198,93.4437836 L295.366867,93.4437836 L295.366867,89.0769265 Z" id="Page-1"></path>
            </g>
        </g>
    </g>
</svg>