<?xml version="1.0" encoding="UTF-8" standalone="no"?>
<svg width="43px" height="43px" viewBox="0 0 43 43" version="1.1" xmlns="http://www.w3.org/2000/svg" xmlns:xlink="http://www.w3.org/1999/xlink">
    <!-- Generator: Sketch 3.8.3 (29802) - http://www.bohemiancoding.com/sketch -->
    <title>Page 1</title>
    <desc>Created with Sketch.</desc>
    <defs></defs>
    <g id="Page-1" stroke="none" stroke-width="1" fill="none" fill-rule="evenodd">
        <g id="Home" transform="translate(-730.000000, -3905.000000)" fill="#FFFFFF">
            <g id="Group-6" transform="translate(383.000000, 3822.000000)">
                <path d="M368.5,83 C362.565075,83 357.498068,85.0995879 353.298828,89.2988281 C349.099588,93.4980684 347,98.5650755 347,104.5 C347,110.434925 349.099588,115.501932 353.298828,119.701172 C357.498068,123.900412 362.565075,126 368.5,126 C374.434925,126 379.501932,123.900412 383.701172,119.701172 C387.900412,115.501932 390,110.434925 390,104.5 C390,98.5650755 387.900412,93.4980684 383.701172,89.2988281 C379.501932,85.0995879 374.434925,83 368.5,83 L368.5,83 Z M368.5,86.1914062 C373.14716,86.1914062 377.206361,87.7311019 380.677734,90.8105469 C380.397783,91.2024757 380.005859,91.6643871 379.501953,92.1962918 C378.998047,92.728191 377.94825,93.5540329 376.352542,94.6738281 C374.756828,95.7936234 372.979176,96.7174461 371.019531,97.4453125 C368.947904,93.5820097 366.680353,89.9987122 364.216797,86.6953125 C365.616544,86.359375 367.044262,86.1914062 368.5,86.1914062 L368.5,86.1914062 Z M360.689453,87.8710938 C363.153009,91.2304849 365.42056,94.7857894 367.492188,98.5371094 C361.613254,100.104825 355.958362,100.860679 350.527344,100.804688 C351.143232,97.9492026 352.346996,95.3877088 354.138672,93.1201145 C355.930347,90.8525256 358.11392,89.1028717 360.689453,87.8710938 L360.689453,87.8710938 Z M350.107422,104.5 L350.107422,103.996094 C356.378284,104.108071 362.677053,103.240245 369.003906,101.392578 C369.563804,102.400396 370.067705,103.436191 370.515625,104.5 C370.235674,104.555991 369.983726,104.611977 369.759766,104.667969 C367.576161,105.395835 365.518563,106.403637 363.586917,107.691406 C361.655265,108.979176 360.059578,110.32291 358.799802,111.722656 C357.540031,113.122403 356.644207,114.186196 356.112302,114.914062 C355.580403,115.641929 355.174483,116.285806 354.894531,116.845703 C351.703109,113.318343 350.107422,109.203147 350.107422,104.5 L350.107422,104.5 Z M368.5,122.892578 C364.30076,122.892578 360.549493,121.604831 357.246094,119.029297 C357.414062,118.693359 357.624021,118.315432 357.875979,117.895511 C358.127932,117.475583 358.659826,116.761724 359.471677,115.753906 C360.283533,114.746088 361.179357,113.808274 362.159177,112.940427 C363.139002,112.072585 364.482741,111.120774 366.190427,110.084958 C367.898118,109.049147 369.703769,108.195318 371.607422,107.523438 L371.775391,107.523438 C373.623058,112.338567 374.910805,116.985657 375.638672,121.464844 C373.399076,122.416671 371.019542,122.892578 368.5,122.892578 L368.5,122.892578 Z M378.746094,119.785156 C378.074213,115.697899 376.898448,111.330754 375.21875,106.683594 C379.138039,106.011713 382.945296,106.263666 386.640625,107.439453 C385.800776,112.646511 383.169294,116.761703 378.746094,119.785156 L378.746094,119.785156 Z M374.042969,103.744141 C373.930991,103.408203 373.819009,103.100264 373.707031,102.820312 C373.315102,101.924477 372.895186,101.028648 372.447266,100.132812 C374.462901,99.2929634 376.324538,98.2851616 378.032229,97.109375 C379.739915,95.9335884 380.8597,95.0517605 381.391604,94.4638645 C381.923503,93.8759739 382.357422,93.3580765 382.693359,92.9101562 C385.436862,96.2695474 386.836587,100.0768 386.892578,104.332031 C382.525369,103.436196 378.242209,103.240234 374.042969,103.744141 L374.042969,103.744141 Z" id="Page-1"></path>
            </g>
        </g>
    </g>
</svg>