<?xml version="1.0" encoding="UTF-8" standalone="no"?>
<svg width="116px" height="116px" viewBox="0 0 116 116" version="1.1" xmlns="http://www.w3.org/2000/svg" xmlns:xlink="http://www.w3.org/1999/xlink">
    <!-- Generator: Sketch 3.8.3 (29802) - http://www.bohemiancoding.com/sketch -->
    <title>teamwork</title>
    <desc>Created with Sketch.</desc>
    <defs></defs>
    <g id="Page-1" stroke="none" stroke-width="1" fill="none" fill-rule="evenodd">
        <g id="Home" transform="translate(-1100.000000, -2746.000000)">
            <g id="Group-5" transform="translate(148.000000, 2745.000000)">
                <g id="teamwork" transform="translate(952.000000, 1.000000)">
                    <g id="Layer_1">
                        <g id="Group">
                            <ellipse id="Oval" fill="#4990E2" cx="95.2857143" cy="53.2522857" rx="8.28571429" ry="8.28571429"></ellipse>
                            <polygon id="Shape" fill="#7ED321" points="58 56.0466429 60.5561429 51.7857143 55.4438571 51.7857143"></polygon>
                            <path d="M66.2857143,38.7522857 C66.2857143,37.4825 65.975,36.2914286 65.4612857,35.2142857 C65.453,35.1997857 65.4385,35.1873571 65.4322857,35.1728571 C65.1464286,34.5825 64.7880714,34.0315 64.3758571,33.5260714 C64.3592857,33.5053571 64.3406429,33.4846429 64.3240714,33.4639286 C63.9077143,32.9626429 63.4354286,32.509 62.9134286,32.1216429 C62.9092857,32.1175 62.9051429,32.1112857 62.901,32.1071429 C61.5255714,31.0900714 59.8394286,30.4665714 58,30.4665714 C56.1585,30.4665714 54.4723571,31.0900714 53.0969286,32.1092143 C53.0907143,32.1133571 53.0886429,32.1216429 53.0803571,32.1278571 C52.5604286,32.5152143 52.0881429,32.9688571 51.6717857,33.4680714 C51.6614286,33.4805 51.6510714,33.495 51.6386429,33.5074286 C51.2264286,34.0087143 50.8680714,34.5597143 50.5801429,35.1438571 C50.5739286,35.1562857 50.5615,35.1666429 50.5552857,35.1790714 C50.0332857,36.2645 49.7142857,37.4659286 49.7142857,38.7522857 C49.7142857,43.3218571 53.4304286,47.038 58,47.038 C62.5695714,47.038 66.2857143,43.3218571 66.2857143,38.7522857 L66.2857143,38.7522857 Z" id="Shape" fill="#7ED321"></path>
                            <path d="M50.6692143,17.6382143 C54.7064286,13.601 61.277,13.601 65.3142143,17.6382143 C68.6740714,20.9980714 69.2395714,26.1497143 66.9299286,30.1268571 C67.7750714,31.001 68.4897143,31.9994286 69.0510714,33.0910714 L69.6041429,33.6462143 C73.8547143,27.9705 73.4010714,19.865 68.2452857,14.7071429 C65.5130714,11.9749286 61.8715,10.4669286 57.9937857,10.4669286 C54.114,10.4669286 50.4724286,11.9728571 47.7402143,14.7071429 C42.5844286,19.8629286 42.1307857,27.9684286 46.3813571,33.6441429 L46.9613571,33.0641429 C47.5185714,31.987 48.2249286,31.0030714 49.0597143,30.1392857 C46.7417857,26.158 47.3052143,21.0022143 50.6692143,17.6382143 L50.6692143,17.6382143 Z" id="Shape" fill="#66CEDB"></path>
                            <ellipse id="Oval" fill="#4990E2" cx="20.7142857" cy="53.2522857" rx="8.28571429" ry="8.28571429"></ellipse>
                            <path d="M8.28571429,72.5 L12.4285714,72.5 L12.4285714,111.857143 L18.6428571,111.857143 L18.6428571,89.0714286 L22.7857143,89.0714286 L22.7857143,111.857143 L29,111.857143 L29,72.5 L33.1428571,72.5 L33.1428571,84.9285714 L37.2857143,84.9285714 L37.2857143,71.8951429 C37.2857143,68.4669286 34.4975714,66.2857143 31.0714286,66.2857143 L10.3571429,66.2857143 C6.931,66.2857143 4.14285714,68.4669286 4.14285714,71.8951429 L4.14285714,84.9285714 L8.28571429,84.9285714 L8.28571429,72.5 L8.28571429,72.5 Z" id="Shape" fill="#4990E2"></path>
                            <path d="M45.5714286,58 L49.7142857,58 L49.7142857,97.3571429 L55.9285714,97.3571429 L55.9285714,74.5714286 L60.0714286,74.5714286 L60.0714286,97.3571429 L66.2857143,97.3571429 L66.2857143,58 L70.4285714,58 L70.4285714,70.4285714 L74.5714286,70.4285714 L74.5714286,57.3951429 C74.5714286,53.9669286 71.7832857,51.7857143 68.3571429,51.7857143 L65.3867143,51.7857143 L59.7752143,60.8337143 C59.4002857,61.4572143 58.7270714,61.6871429 58,61.6871429 C57.2708571,61.6871429 56.5976429,61.5317857 56.2247857,60.9082857 L50.6132857,51.7857143 L47.6428571,51.7857143 C44.2167143,51.7857143 41.4285714,53.9669286 41.4285714,57.3951429 L41.4285714,70.4285714 L45.5714286,70.4285714 L45.5714286,58 L45.5714286,58 Z" id="Shape" fill="#7ED321"></path>
                            <path d="M82.8571429,72.5 L87,72.5 L87,111.857143 L93.2142857,111.857143 L93.2142857,89.0714286 L97.3571429,89.0714286 L97.3571429,111.857143 L103.571429,111.857143 L103.571429,72.5 L107.714286,72.5 L107.714286,84.9285714 L111.857143,84.9285714 L111.857143,71.8951429 C111.857143,68.4669286 109.069,66.2857143 105.642857,66.2857143 L84.9285714,66.2857143 C81.5024286,66.2857143 78.7142857,68.4669286 78.7142857,71.8951429 L78.7142857,84.9285714 L82.8571429,84.9285714 L82.8571429,72.5 L82.8571429,72.5 Z" id="Shape" fill="#4990E2"></path>
                            <g fill="#000000">
                                <path d="M105.642857,62.1428571 L104.522214,62.1428571 C106.500429,58 107.714286,56.7385 107.714286,53.5547143 C107.714286,46.7003571 102.140071,40.9749286 95.2857143,40.9749286 C88.4313571,40.9749286 82.8571429,46.777 82.8571429,53.6313571 C82.8571429,56.8172143 84.071,58.0020714 86.0471429,62.1449286 L84.9285714,62.1449286 C82.5878571,62.1449286 80.4501429,62.3479286 78.7142857,63.6632857 L78.7142857,57.3951429 C78.7142857,51.6842143 74.0680714,47.6428571 68.3571429,47.6428571 L67.2365,47.6428571 C69.2147143,43.5 70.4285714,42.2385 70.4285714,39.0547143 C70.4285714,39.0070714 70.4223571,38.8123571 70.4223571,38.7647143 C70.6957857,38.6632143 70.9567857,38.4395 71.1763571,38.2199286 C78.445,30.9512857 78.445,19.0861429 71.1763571,11.8175 C68.0692143,8.71035714 64.1314286,6.90614286 60.0735,6.45457143 L60.0735,5.60735714 C60.0714286,2.18121429 57.2832857,0 53.8571429,0 L0,0 L0,4.14285714 L53.8571429,4.14285714 C55.0005714,4.14285714 55.9285714,4.466 55.9285714,5.60735714 L55.9285714,6.45042857 C51.8644286,6.89992857 47.9204286,8.66892857 44.8112143,11.7781429 C37.5425714,19.0467857 37.5425714,30.8746429 44.8112143,38.1412143 C45.0349286,38.3649286 45.3000714,38.512 45.5797143,38.6135 C45.5797143,38.6590714 45.5735,39.0070714 45.5735,39.0526429 C45.5714286,42.2385 46.7852857,43.5 48.7614286,47.6428571 L47.6428571,47.6428571 C41.9319286,47.6428571 37.2857143,51.6842143 37.2857143,57.3951429 L37.2857143,63.6632857 C35.5498571,62.3458571 33.4121429,62.1428571 31.0714286,62.1428571 L29.9507857,62.1428571 C31.929,58 33.1428571,56.7385 33.1428571,53.5547143 C33.1428571,46.7003571 27.5686429,40.9749286 20.7142857,40.9749286 C13.8599286,40.9749286 8.28571429,46.777 8.28571429,53.6313571 C8.28571429,56.8151429 9.49957143,58 11.4757143,62.1428571 L10.3571429,62.1428571 C4.64621429,62.1428571 0,66.1842143 0,71.8951429 L0,86.3951429 C0,87.5385714 0.925928571,89.0714286 2.07142857,89.0714286 L8.28571429,89.0714286 L8.28571429,113.323714 C8.28571429,114.467143 9.21164286,116 10.3571429,116 L20.7142857,116 L31.0714286,116 C32.2169286,116 33.1428571,114.467143 33.1428571,113.323714 L33.1428571,89.0714286 L39.3571429,89.0714286 C40.5026429,89.0714286 41.4285714,87.5385714 41.4285714,86.3951429 L41.4285714,74.5714286 L45.5714286,74.5714286 L45.5714286,98.8237143 C45.5714286,99.9671429 46.4973571,101.5 47.6428571,101.5 L58,101.5 L68.3571429,101.5 C69.5026429,101.5 70.4285714,99.9671429 70.4285714,98.8237143 L70.4285714,74.5714286 L74.5714286,74.5714286 L74.5714286,86.3951429 C74.5714286,87.5385714 75.4973571,89.0714286 76.6428571,89.0714286 L82.8571429,89.0714286 L82.8571429,113.323714 C82.8571429,114.467143 83.7830714,116 84.9285714,116 L95.2857143,116 L105.642857,116 C106.788357,116 107.714286,114.467143 107.714286,113.323714 L107.714286,89.0714286 L113.928571,89.0714286 C115.074071,89.0714286 116,87.5385714 116,86.3951429 L116,71.8951429 C116,66.1842143 111.353786,62.1428571 105.642857,62.1428571 L105.642857,62.1428571 Z M87,53.2522857 C87,48.6827143 90.7161429,44.9665714 95.2857143,44.9665714 C99.8552857,44.9665714 103.571429,48.6827143 103.571429,53.2522857 C103.571429,57.8218571 99.8552857,61.538 95.2857143,61.538 C90.7161429,61.538 87,57.8218571 87,53.2522857 L87,53.2522857 Z M60.5561429,51.7857143 L58,56.0466429 L55.4438571,51.7857143 L60.5561429,51.7857143 L60.5561429,51.7857143 Z M58,26.3237143 C56.0052143,26.3237143 54.1243571,26.8084286 52.4506429,27.6473571 C51.3196429,25.3232143 51.6966429,22.4708571 53.5982143,20.5692857 C56.0217857,18.1457143 59.9616429,18.1457143 62.3852143,20.5692857 C64.2847143,22.4687857 64.6617143,25.3190714 63.5348571,27.6411429 C61.8652857,26.8042857 59.9906429,26.3237143 58,26.3237143 L58,26.3237143 Z M46.3813571,33.6462143 C42.1307857,27.9725714 42.5844286,19.8670714 47.7402143,14.7092143 C50.4724286,11.977 54.114,10.469 57.9937857,10.469 C61.8715,10.469 65.5130714,11.9749286 68.2452857,14.7092143 C73.4010714,19.865 73.8547143,27.9705 69.6041429,33.6482857 L69.0510714,33.0931429 C68.4897143,32.0015 67.7750714,31.0030714 66.9299286,30.1289286 C69.2395714,26.1517857 68.6740714,21.0001429 65.3142143,17.6402857 C61.277,13.6030714 54.7064286,13.6030714 50.6692143,17.6402857 C47.3052143,21.0042857 46.7417857,26.1600714 49.0597143,30.1413571 C48.227,31.0072143 47.5185714,31.9911429 46.9613571,33.0662143 L46.3813571,33.6462143 L46.3813571,33.6462143 Z M49.7142857,38.7522857 C49.7142857,37.468 50.0332857,36.2645 50.5573571,35.177 C50.5635714,35.1645714 50.576,35.1562857 50.5822143,35.1417857 C50.8680714,34.5555714 51.2264286,34.0066429 51.6407143,33.5053571 C51.6510714,33.4929286 51.6614286,33.4784286 51.6738571,33.466 C52.0902143,32.9667857 52.5625,32.5131429 53.0824286,32.1257857 C53.0886429,32.1216429 53.0907143,32.1133571 53.099,32.1071429 C54.4765,31.088 56.1626429,30.4645 58.0020714,30.4645 C59.8415,30.4645 61.5276429,31.088 62.9030714,32.1050714 C62.9072143,32.1092143 62.9113571,32.1154286 62.9155,32.1195714 C63.4375,32.5069286 63.9097857,32.9605714 64.3261429,33.4618571 C64.3427143,33.4825714 64.3592857,33.5032857 64.3779286,33.524 C64.7901429,34.0294286 65.1485,34.5804286 65.4343571,35.1707857 C65.4426429,35.1852857 65.4571429,35.1977143 65.4633571,35.2122143 C65.975,36.2893571 66.2857143,37.4804286 66.2857143,38.7522857 C66.2857143,43.3218571 62.5695714,47.038 58,47.038 C53.4304286,47.038 49.7142857,43.3218571 49.7142857,38.7522857 L49.7142857,38.7522857 Z M12.4285714,53.2522857 C12.4285714,48.6827143 16.1447143,44.9665714 20.7142857,44.9665714 C25.2838571,44.9665714 29,48.6827143 29,53.2522857 C29,57.8218571 25.2838571,61.538 20.7142857,61.538 C16.1447143,61.538 12.4285714,57.8218571 12.4285714,53.2522857 L12.4285714,53.2522857 Z M37.2857143,84.9285714 L33.1428571,84.9285714 L33.1428571,72.5 L29,72.5 L29,111.857143 L22.7857143,111.857143 L22.7857143,89.0714286 L18.6428571,89.0714286 L18.6428571,111.857143 L12.4285714,111.857143 L12.4285714,72.5 L8.28571429,72.5 L8.28571429,84.9285714 L4.14285714,84.9285714 L4.14285714,71.8951429 C4.14285714,68.4669286 6.931,66.2857143 10.3571429,66.2857143 L31.0714286,66.2857143 C34.4975714,66.2857143 37.2857143,68.4669286 37.2857143,71.8951429 L37.2857143,84.9285714 L37.2857143,84.9285714 Z M66.2857143,58 L66.2857143,97.3571429 L60.0714286,97.3571429 L60.0714286,74.5714286 L55.9285714,74.5714286 L55.9285714,97.3571429 L49.7142857,97.3571429 L49.7142857,58 L45.5714286,58 L45.5714286,70.4285714 L41.4285714,70.4285714 L41.4285714,57.3951429 C41.4285714,53.9669286 44.2167143,51.7857143 47.6428571,51.7857143 L50.6132857,51.7857143 L56.2247857,60.8337143 C56.5997143,61.4572143 57.2729286,61.6871429 58,61.6871429 C58.7291429,61.6871429 59.4023571,61.5317857 59.7752143,60.9082857 L65.3867143,51.7857143 L68.3571429,51.7857143 C71.7832857,51.7857143 74.5714286,53.9669286 74.5714286,57.3951429 L74.5714286,70.4285714 L70.4285714,70.4285714 L70.4285714,58 L66.2857143,58 L66.2857143,58 Z M111.857143,84.9285714 L107.714286,84.9285714 L107.714286,72.5 L103.571429,72.5 L103.571429,111.857143 L97.3571429,111.857143 L97.3571429,89.0714286 L93.2142857,89.0714286 L93.2142857,111.857143 L87,111.857143 L87,72.5 L82.8571429,72.5 L82.8571429,84.9285714 L78.7142857,84.9285714 L78.7142857,71.8951429 C78.7142857,68.4669286 81.5024286,66.2857143 84.9285714,66.2857143 L105.642857,66.2857143 C109.069,66.2857143 111.857143,68.4669286 111.857143,71.8951429 L111.857143,84.9285714 L111.857143,84.9285714 Z" id="Shape"></path>
                                <rect id="Rectangle-path" x="35.2142857" y="7.67878571" width="4.14285714" height="4.14285714"></rect>
                                <rect id="Rectangle-path" x="26.9285714" y="7.67878571" width="4.14285714" height="4.14285714"></rect>
                                <rect id="Rectangle-path" x="18.6428571" y="7.67878571" width="4.14285714" height="4.14285714"></rect>
                            </g>
                        </g>
                    </g>
                </g>
            </g>
        </g>
    </g>
</svg>