<?xml version="1.0" encoding="UTF-8" standalone="no"?>
<svg width="123px" height="111px" viewBox="0 0 123 111" version="1.1" xmlns="http://www.w3.org/2000/svg" xmlns:xlink="http://www.w3.org/1999/xlink">
    <!-- Generator: Sketch 3.8.3 (29802) - http://www.bohemiancoding.com/sketch -->
    <title>workplace</title>
    <desc>Created with Sketch.</desc>
    <defs></defs>
    <g id="Page-1" stroke="none" stroke-width="1" fill="none" fill-rule="evenodd">
        <g id="Home" transform="translate(-668.000000, -2745.000000)">
            <g id="Group-5" transform="translate(148.000000, 2745.000000)">
                <g id="workplace" transform="translate(520.000000, 0.000000)">
                    <g id="Layer_1">
                        <g id="Group">
                            <rect id="Rectangle-path" fill="#D2038C" x="105.428571" y="65.0110887" width="6.58928571" height="41.609015"></rect>
                            <rect id="Rectangle-path" fill="#D2038C" x="10.9821429" y="65.0110887" width="6.58928571" height="41.609015"></rect>
                            <polygon id="Shape" fill="#D2038C" points="105.742661 56.2512961 76.875 56.2512961 63.6964286 56.2512961 41.7321429 56.2512961 30.75 56.2512961 24.1607143 56.2512961 6.58928571 56.2512961 4.39285714 56.2512961 4.39285714 60.6311924 8.78571429 60.6311924 19.7678571 60.6311924 103.232143 60.6311924 114.214286 60.6311924 118.607143 60.6311924 118.607143 56.2512961 118.293054 56.2512961"></polygon>
                            <path d="M15.375,47.4915035 C12.5108571,47.4915035 10.0684286,47.4915035 9.16130357,51.8713998 L21.5886964,51.8713998 C20.6815714,47.4915035 18.2391429,47.4915035 15.375,47.4915035 L15.375,47.4915035 Z" id="Shape" fill="#4990E2"></path>
                            <path d="M76.875,43.1116071 L90.0535714,43.1116071 C91.266,43.1116071 92.25,41.4888556 92.25,40.2821941 L92.25,38.7317108 L48.3214286,38.7317108 L48.3214286,40.2821941 C48.3214286,41.4888556 49.3054286,43.1116071 50.5178571,43.1116071 L63.6964286,43.1116071 L76.875,43.1116071 L76.875,43.1116071 Z" id="Shape" fill="#FFFFFF"></path>
                            <rect id="Rectangle-path" fill="#FFFFFF" x="32.9464286" y="49.6814516" width="6.58928571" height="2.18994816"></rect>
                            <rect id="Rectangle-path" fill="#FFFFFF" x="65.8928571" y="47.4915035" width="8.78571429" height="4.37989631"></rect>
                            <path d="M92.25,18.3827126 C92.25,17.1738612 91.266,16.8322293 90.0535714,16.8322293 L50.5178571,16.8322293 C49.3054286,16.8322293 48.3214286,17.1738612 48.3214286,18.3827126 L48.3214286,34.3518145 L92.25,34.3518145 L92.25,18.3827126 L92.25,18.3827126 Z M60.8564464,30.8785567 L57.7506964,27.78197 L66.5364107,19.0221774 L69.6421607,22.1187641 L60.8564464,30.8785567 L60.8564464,30.8785567 Z M74.0350179,30.8785567 L70.9292679,27.78197 L79.7149821,19.0221774 L82.8207321,22.1187641 L74.0350179,30.8785567 L74.0350179,30.8785567 Z" id="Shape" fill="#4990E2"></path>
                            <ellipse id="Oval" fill="#4990E2" cx="6.58928571" cy="22.7626089" rx="2.19642857" ry="2.18994816"></ellipse>
                            <path d="M112.017857,27.1425052 C113.230286,27.1425052 114.214286,26.1592185 114.214286,24.952557 L114.214286,22.7626089 L109.821429,22.7626089 L109.821429,24.952557 C109.821429,26.1592185 110.805429,27.1425052 112.017857,27.1425052 L112.017857,27.1425052 Z" id="Shape" fill="#4990E2"></path>
                            <path d="M26.3571429,12.4523329 C23.493,12.4523329 21.0505714,12.4523329 20.1434464,16.8322293 L32.5708393,16.8322293 C31.6637143,12.4523329 29.2212857,12.4523329 26.3571429,12.4523329 L26.3571429,12.4523329 Z" id="Shape" fill="#4990E2"></path>
                            <polygon id="Shape" fill="#4990E2" points="116.476607 51.8713998 118.150286 43.1116071 105.885429 43.1116071 107.559107 51.8713998"></polygon>
                            <path d="M28.5535714,7.65415654 L28.5535714,7.43297177 C28.5535714,6.22631034 27.5695714,5.24302362 26.3571429,5.24302362 C25.1447143,5.24302362 24.1607143,6.22631034 24.1607143,7.43297177 L24.1607143,7.65415654 C24.8701607,7.50961996 25.6059643,7.43297177 26.3571429,7.43297177 C27.1083214,7.43297177 27.844125,7.50961996 28.5535714,7.65415654 L28.5535714,7.65415654 Z" id="Shape" fill="#4990E2"></path>
                            <path d="M72.4821429,75.9608295 C72.4821429,74.7541681 71.4981429,73.7708813 70.2857143,73.7708813 L52.7142857,73.7708813 C51.5018571,73.7708813 50.5178571,74.7541681 50.5178571,75.9608295 C50.5178571,77.1674909 51.5018571,78.1507776 52.7142857,78.1507776 L70.2857143,78.1507776 C71.4981429,78.1507776 72.4821429,77.1674909 72.4821429,75.9608295 L72.4821429,75.9608295 Z" id="Shape" fill="#D2038C"></path>
                            <g fill="#000000">
                                <path d="M120.941946,51.2582143 L122.960464,40.6895245 C123.083464,40.0478697 122.912143,39.7062378 122.494821,39.2047396 C122.0775,38.7032415 121.458107,38.7317108 120.803571,38.7317108 L114.214286,38.7317108 L114.214286,31.1172611 C116.764339,30.2106226 118.607143,27.8016796 118.607143,24.9503671 L118.607143,20.5704708 C118.607143,19.3616194 117.625339,19.0221774 116.410714,19.0221774 L107.625,19.0221774 C106.410375,19.0221774 105.428571,19.3616194 105.428571,20.5726607 L105.428571,24.952557 C105.428571,27.8038695 107.269179,30.2128125 109.821429,31.119451 L109.821429,38.7317108 L103.232143,38.7317108 C102.577607,38.7317108 101.958214,38.7032415 101.538696,39.2047396 C101.123571,39.7084277 100.950054,40.5296583 101.073054,41.1713131 L103.087179,51.8713998 L79.0714286,51.8713998 L79.0714286,47.4915035 L90.0535714,47.4915035 C93.6864643,47.4915035 96.6428571,43.9043684 96.6428571,40.2821941 L96.6428571,18.3827126 C96.6428571,14.7583484 93.6864643,12.4523329 90.0535714,12.4523329 L50.5178571,12.4523329 C46.8849643,12.4523329 43.9285714,14.7583484 43.9285714,18.3827126 L43.9285714,40.2821941 C43.9285714,43.9043684 46.8849643,47.4915035 50.5178571,47.4915035 L61.5,47.4915035 L61.5,51.8713998 L43.9285714,51.8713998 L43.9285714,49.0419868 C43.9285714,46.624284 41.9561786,45.3015553 39.5357143,45.3015553 L32.9464286,45.3015553 C30.5237679,45.3015553 28.5535714,46.624284 28.5535714,49.0419868 L28.5535714,51.8713998 L26.1353036,51.8713998 C25.2084107,45.3015553 21.4547143,43.5474068 16.804875,42.9364113 L9.72798214,28.6623292 C11.7728571,27.5454556 13.1785714,25.3248482 13.1785714,22.841447 C13.1785714,21.1595668 12.5218393,19.5981338 11.4741429,18.4352713 L15.5792679,16.3679603 C15.4562679,17.0293246 15.375,18.0148013 15.375,18.7112048 C15.375,19.9222461 16.3568036,21.2121256 17.5714286,21.2121256 L35.1428571,21.2121256 C36.3574821,21.2121256 37.3392857,20.2310288 37.3392857,19.0221774 C37.3392857,15.4284725 35.5689643,10.2623848 32.8783393,10.2623848 L32.9464286,10.2623848 L32.9464286,7.43297177 C32.9464286,3.81079752 29.9900357,0.863127304 26.3571429,0.863127304 C22.72425,0.863127304 19.7678571,3.81079752 19.7678571,7.43297177 L19.7678571,9.36450605 L5.93914286,16.2584628 C2.61375,16.589145 0,19.3616194 0,22.7626089 C0,25.8898548 2.20741071,28.5046529 5.14623214,29.1616374 L12.0979286,43.3437416 C8.33105357,44.5306935 5.41419643,47.4915035 4.61469643,51.8713998 L2.19642857,51.8713998 C0.981803571,51.8713998 0,52.2108417 0,53.4218831 L0,62.1816757 C0,63.3905271 0.981803571,65.0110887 2.19642857,65.0110887 L6.58928571,65.0110887 L6.58928571,108.170587 C6.58928571,109.379438 7.57108929,111 8.78571429,111 L19.7678571,111 C20.9824821,111 21.9642857,109.379438 21.9642857,108.170587 L21.9642857,65.0110887 L101.035714,65.0110887 L101.035714,108.170587 C101.035714,109.379438 102.017518,111 103.232143,111 L114.214286,111 C115.428911,111 116.410714,109.379438 116.410714,108.170587 L116.410714,65.0110887 L120.803571,65.0110887 C122.018196,65.0110887 123,63.3905271 123,62.1816757 L123,53.4218831 C123,52.2612105 122.088482,51.3348625 120.941946,51.2582143 L120.941946,51.2582143 Z M109.821429,22.7626089 L114.214286,22.7626089 L114.214286,24.952557 C114.214286,26.1592185 113.230286,27.1425052 112.017857,27.1425052 C110.805429,27.1425052 109.821429,26.1592185 109.821429,24.952557 L109.821429,22.7626089 L109.821429,22.7626089 Z M105.885429,43.1116071 L118.150286,43.1116071 L116.476607,51.8713998 L107.559107,51.8713998 L105.885429,43.1116071 L105.885429,43.1116071 Z M50.5178571,16.8322293 L90.0535714,16.8322293 C91.266,16.8322293 92.25,17.1738612 92.25,18.3827126 L92.25,34.3518145 L48.3214286,34.3518145 L48.3214286,18.3827126 C48.3214286,17.1738612 49.3054286,16.8322293 50.5178571,16.8322293 L50.5178571,16.8322293 Z M48.3214286,40.2821941 L48.3214286,38.7317108 L92.25,38.7317108 L92.25,40.2821941 C92.25,41.4888556 91.266,43.1116071 90.0535714,43.1116071 L76.875,43.1116071 L63.6964286,43.1116071 L50.5178571,43.1116071 C49.3054286,43.1116071 48.3214286,41.4888556 48.3214286,40.2821941 L48.3214286,40.2821941 Z M65.8928571,47.4915035 L74.6785714,47.4915035 L74.6785714,51.8713998 L65.8928571,51.8713998 L65.8928571,47.4915035 L65.8928571,47.4915035 Z M32.9464286,49.6814516 L39.5357143,49.6814516 L39.5357143,51.8713998 L32.9464286,51.8713998 L32.9464286,49.6814516 L32.9464286,49.6814516 Z M20.1434464,16.8322293 C21.0505714,12.4523329 23.493,12.4523329 26.3571429,12.4523329 C29.2212857,12.4523329 31.6637143,12.4523329 32.5708393,16.8322293 L20.1434464,16.8322293 L20.1434464,16.8322293 Z M26.3571429,5.24302362 C27.5695714,5.24302362 28.5535714,6.22631034 28.5535714,7.43297177 L28.5535714,7.65415654 C27.844125,7.50961996 27.1083214,7.43297177 26.3571429,7.43297177 C25.6059643,7.43297177 24.8701607,7.50961996 24.1607143,7.65415654 L24.1607143,7.43297177 C24.1607143,6.22412039 25.1447143,5.24302362 26.3571429,5.24302362 L26.3571429,5.24302362 Z M6.58928571,20.5726607 C7.80171429,20.5726607 8.78571429,21.5559474 8.78571429,22.7626089 C8.78571429,23.9692703 7.80171429,24.952557 6.58928571,24.952557 C5.37685714,24.952557 4.39285714,23.9692703 4.39285714,22.7626089 C4.39285714,21.5559474 5.37685714,20.5726607 6.58928571,20.5726607 L6.58928571,20.5726607 Z M15.375,47.4915035 C18.2391429,47.4915035 20.6815714,47.4915035 21.5886964,51.8713998 L9.16130357,51.8713998 C10.0684286,47.4915035 12.5108571,47.4915035 15.375,47.4915035 L15.375,47.4915035 Z M17.5714286,106.620104 L10.9821429,106.620104 L10.9821429,65.0110887 L17.5714286,65.0110887 L17.5714286,106.620104 L17.5714286,106.620104 Z M112.017857,106.620104 L105.428571,106.620104 L105.428571,65.0110887 L112.017857,65.0110887 L112.017857,106.620104 L112.017857,106.620104 Z M118.607143,60.6311924 L114.214286,60.6311924 L103.232143,60.6311924 L19.7678571,60.6311924 L8.78571429,60.6311924 L4.39285714,60.6311924 L4.39285714,56.2512961 L6.58928571,56.2512961 L24.1607143,56.2512961 L30.75,56.2512961 L41.7321429,56.2512961 L63.6964286,56.2512961 L76.875,56.2512961 L105.742661,56.2512961 L118.29525,56.2512961 L118.607143,56.2512961 L118.607143,60.6311924 L118.607143,60.6311924 Z" id="Shape"></path>
                                <path d="M76.875,75.9608295 C76.875,72.3386552 73.9186071,69.390985 70.2857143,69.390985 L52.7142857,69.390985 C49.0813929,69.390985 46.125,72.3386552 46.125,75.9608295 C46.125,79.5830037 49.0813929,82.530674 52.7142857,82.530674 L54.1331786,82.530674 L46.2216429,107.846475 C46.1579464,108.05452 46.125,107.951592 46.125,108.170587 L46.125,111 L50.5178571,111 L50.5178571,108.499079 L58.7303036,82.530674 L59.3035714,82.530674 L59.3035714,111 L63.6964286,111 L63.6964286,82.530674 L64.2696964,82.530674 L72.4821429,108.499079 L72.4821429,111 L76.875,111 L76.875,108.170587 C76.875,107.951592 76.8420536,108.05671 76.7783571,107.846475 L68.8668214,82.530674 L70.2857143,82.530674 C73.9186071,82.530674 76.875,79.5830037 76.875,75.9608295 L76.875,75.9608295 Z M50.5178571,75.9608295 C50.5178571,74.7541681 51.5018571,73.7708813 52.7142857,73.7708813 L70.2857143,73.7708813 C71.4981429,73.7708813 72.4821429,74.7541681 72.4821429,75.9608295 C72.4821429,77.1674909 71.4981429,78.1507776 70.2857143,78.1507776 L52.7142857,78.1507776 C51.5018571,78.1507776 50.5178571,77.1674909 50.5178571,75.9608295 L50.5178571,75.9608295 Z" id="Shape"></path>
                                <rect id="Rectangle-path" transform="translate(63.699249, 24.960234) rotate(135.000000) translate(-63.699249, -24.960234) " x="57.4867105" y="22.7703066" width="12.4250773" height="4.37985431"></rect>
                                <rect id="Rectangle-path" transform="translate(76.877177, 24.962627) rotate(135.000000) translate(-76.877177, -24.962627) " x="70.6646386" y="22.7727" width="12.4250773" height="4.37985431"></rect>
                            </g>
                        </g>
                    </g>
                </g>
            </g>
        </g>
    </g>
</svg>