<?xml version="1.0" standalone="no"?>
<!DOCTYPE svg PUBLIC "-//W3C//DTD SVG 20010904//EN"
 "http://www.w3.org/TR/2001/REC-SVG-20010904/DTD/svg10.dtd">
<svg version="1.0" xmlns="http://www.w3.org/2000/svg"
 width="400.000000pt" height="400.000000pt" viewBox="0 0 400.000000 400.000000"
 preserveAspectRatio="xMidYMid meet">
<metadata>
Created by potrace 1.11, written by Peter Selinger 2001-2013
</metadata>
<g transform="translate(0.000000,400.000000) scale(0.100000,-0.100000)"
fill="#000000" stroke="none">
<path d="M2435 3273 c-74 -8 -217 -43 -310 -78 -401 -151 -702 -484 -809 -899
-25 -96 -34 -157 -41 -298 -5 -96 -15 -127 -51 -176 -34 -43 -88 -77 -166
-101 -58 -18 -83 -23 -178 -36 -41 -6 -289 -6 -375 0 -154 10 -342 12 -363 4
-29 -11 -28 -30 5 -60 32 -29 130 -99 139 -99 3 0 18 -8 32 -19 25 -17 99 -59
272 -153 144 -78 512 -264 615 -311 186 -83 478 -193 565 -212 8 -2 49 -12 90
-24 72 -19 238 -54 310 -65 178 -28 472 -26 633 3 407 74 719 283 918 616 46
77 112 221 125 274 2 9 8 34 14 56 33 123 46 360 25 465 -2 14 -10 50 -15 80
-28 139 -117 351 -192 455 -18 26 -41 59 -50 74 -27 40 -175 188 -238 236
-152 117 -348 209 -520 244 -30 6 -66 14 -80 17 -31 7 -300 12 -355 7z"/>
</g>
</svg>
